<?xml version="1.0" encoding="UTF-8"?>
<svg id="Camada_1" xmlns="http://www.w3.org/2000/svg" version="1.1" viewBox="0 0 595.28 841.89">
  <!-- Generator: Adobe Illustrator 29.5.1, SVG Export Plug-In . SVG Version: 2.1.0 Build 141)  -->
  <path d="M371.1,294.45c2.31-1.94,3.27-4.93,5.27-7.33,7.38-8.85,18.02-15.4,24.68-24.94,5.32-7.62,7.71-15.49,9.16-24.6,3.09-.9,4.88,1.88,7.25,2.78,3.86,1.46,8.44,2.77,12.6,2.91s9.42-3.07,8.39,4.2c-.72,5.12-6.34,16.35-9.26,20.89-3.21,4.97-7.85,8.85-10.91,13.89,6.81-2.15,12.82-7.74,17.5-13,1.83-2.06,4.51-7.11,6.02-8.42,4.45-3.9,6.87,9.11,9.03,12.07,2.45,3.37,11.97,9.59,12.62,11,1.73,3.76-6.07,11.29-8.94,13.83-18.86,16.69-45.81,17.88-69.86,17.99-1.7.55-1.38,2.43-1.34,3.95,33.63-3.64,60.42,7.95,79.24,35.87,4.47,6.63,7.98,17.1,11.85,22.32,1.51,2.03,5.79,4.17,7.75,6.08,4.18,4.09,9.13,11.83,9.96,17.69.48,3.38-.8,8.78-.47,10.2.4,1.71,9.07,8.9,8.9,12.71,1.71,1.26,15.54-6.02,18.44-6.33.94-.1,1.61-.21,2.21.69l50.51,95.19c-35.01,14.01-70.38,27.18-105.91,39.82-4.26.31-9.61-6.64-13.74-6.56-3.78.08-9.13,6.07-13.4,5.75-.92-.95,1.73-10.99-1.62-12.2-.58,14.48-6.36,27.98-9.65,41.71,1.03,3.79,18.18,15.89,21.23,21.95.6,1.19.51,3.68.65,3.82.82.83,19.13-1.03,23.23.77,3.78,1.65,3.07,5.37-.24,7.24l-319.38-.59c-2.88-3.37-.96-6.65,3.16-7.34,5.16-1.22,41.15,1.45,42.62-.09.16-.16-.03-2.16.46-3.17,2.12-4.41,25.94-12.96,26.42-15.11-13.21-18.22-33.79-41.76-31.71-65.85,1.87-21.73,29.73-40.48,46.81-50.85l-2.28-14.85-12.41-22.55c-17.29,12.34-39.78,17.87-60.92,15.38-1.67,5.41-3.23,7.43-8.42,9.62-15.69,6.64-35.18,9.91-51.26,16.29-4.93.83-9.79-1.87-12-6.32-1.83-3.7-3.35-15.16-4.63-16.92-.27-.37-4.77-1.64-6.11-2.44-6.98-4.14-11.57-18.86-11.69-26.61-.04-2.62,1.95-7.63,1.6-8.82-.22-.76-4.08-3.12-5.22-4.58-2.06-2.62-10.53-29.86-10.89-33.88-.54-5.97,3.68-8.27,3.71-10.46.02-1.59-3.43-8.61-3.77-12.21-.65-7.07.78-12.29,7.68-15.08,9.03-3.65,23.25-7.36,32.98-10.13,8.26-2.34,12.16-5.26,18.58,2.56,2.68,3.27,5.95,14.1,6.59,14.59,1.11.86,3.05-.53,4.46-.44,2.96.2,6.61,2.36,7.95,5.07l14.45,44.98c11.47-.72,23.62-2.16,33.93-7.65,3.74-2,19.9-14.26,18.88-18.29-.35-1.38-10.91-10.86-12.9-13.21-10.81-12.76-19.23-31.65-21.76-48.19-11.49-75.21,56.44-136.41,130.1-116.27,44.79,12.25,75.83,54.93,73.85,101.44ZM432.1,248.1c-6.15.41-12.26-.78-17.88-3.26-1.28,9.05-6.32,17.95-12.19,24.83-6.84,8.02-22.91,18.65-26.24,28.26-.86,2.5-.88,4.6,2.27,3.09,2.8-1.34,6.03-5.08,9.39-6.88,3.9-2.08,8.71-3.11,12.67-5.23,14.18-7.61,28.38-25.09,31.98-40.82ZM300.17,267.85c-15.56.67-33.9,7.3-49.99,9.41-13.58,1.78-26.85,1.98-40.44,0-15.12-2.2-31.19-12.77-36.1,9.67-1.51,6.91-.38,25.74,2.45,32.12,1.4,3.15,9.25,7.46,12.5,8.65,15.64,5.72,23.61-3.02,37.54-6.99,27.42-7.81,46.75,16.03,79.07,2.6,7.94-3.3,16.11-8.32,17.81-17.17,3.32-17.28-1.49-39.22-22.83-38.3ZM443.48,270.05c-1.64-1.22-6.14,5.89-7.28,6.95-16.79,15.63-35.01,13.62-50.24,24.59-3.84,2.76-6.46,4.37-3.34,9,26.4-.78,58.12-.55,74.71-24.65-5.95-4.07-11.57-8.82-13.84-15.88ZM367.03,322.11c5.99-1.31,12.35-.09,11.22-8.32-.42-3.06-3.75-7.86-6.81-8.71-1.58-.44-.96.27-1.25,1.07-1.58,4.35-1.28,11.24-3.16,15.96ZM211.67,378.24c11.13,18.86,28.74,34.38,49.4,42.1,5.15,1.93,16.39,5.63,21.56,4.9,3.5-.5,16.19-7.3,19.87-9.45,27.09-15.79,47.25-41.96,54.76-72.53-5.49,6.6-9.79,14.18-15.82,20.39-24.51,25.22-62.89,36.74-97.23,28.43,4.43,5.95,11.38,10.04,17.86,13.45,3.64,1.91,9.02,2.64,11.42,6.06-17.1.26-31.88-10.9-42.08-23.61l-19.73-9.73ZM282.96,360.05c3.28-3.21,8.21-11.76,4.76-15.96-8.34,11.15-16.49,12.42-28.71,16.02-.76.22-2.5-.02-1.78,1.44s5.02,2.82,6.62,3.14c6.75,1.38,14.08.3,19.11-4.64ZM74.19,361.97c-2-23.53-21.14-22.27-10.55,2.44,3.5-.85,6.68-3.72,10.55-2.44ZM91.36,417.21c5.68-1.11,46.41-12.34,47.56-14.57.95-1.85-10.23-35.23-12.66-39.49l-47.11,13.53,12.21,40.54ZM450.72,425.5c-.16-.18-2.89-.54-4.41-1.69-2.94-2.24-5.04-8.25-5.26-11.83-.2-3.24,1.69-8.82.4-10.96-.99-1.63-20.39-12.62-23.43-13.98-12.71-5.69-23.88-4.53-37.13-1.45,2.7,14.46,5.42,28.95,7.2,43.58.92,7.59,2.14,16.81,2.55,24.31.06,1.14-1.1,3.07-.77,3.55,19.57,10.52,37.27,26.7,44.69,48.09l-3.13-53.96c.91-2.66,17.58-6.35,20.68-8.64.78-1.11-1.08-6.72-1.28-8.58-.18-1.71.35-7.92-.11-8.44ZM138.26,415.01c-1.25.18-7.05,2.22-7.58,3.08-.83,1.33.69,6.24,2.09,6.97,1.21.63,9.49-1.74,10.19-2.88,1.7-2.8-.03-7.84-4.7-7.16ZM496.33,427c1.11-1.55-5.57-10.86-6.88-10.54-5.44,4.61-.02,6.88.41,12.2l6.47-1.66ZM122.81,419.85c-1.14.13-7.89,2.33-8.35,3.11-.91,1.54-.72,5.43.74,6.6,1.87,1.5,9.87-.57,11.15-2.05,1.54-1.77-.09-8.05-3.54-7.66ZM458.13,421.35c-2.32-.39-1.35.49-1.73,1.88-.72,2.62-1.65,17.53,1.33,17.62,4.33-1.35.74-5.93.4-9.33s.25-6.87,0-10.17ZM484.15,423.79l-11.38,6.9c-3.42,1.1-6.49,1.29-9.75-.39.02,2.17-.32,8.4,3.02,7.57,6.38-1.58,13.08-5.51,19.7-6.8l-1.59-7.27ZM109.89,432.64c.92-1.42-.79-7.4-2.9-7.93-1.25-.31-9.51,2.5-9.91,3.67-.54,1.58.31,7.03,2.04,7.55.55.17,10.47-2.82,10.78-3.3ZM144.59,427.33c-1.4-.17-9.14,2.42-9.84,3.78-.75,1.45.64,6.23,2.08,6.95,1.03.51,9.65-2.02,10.21-2.86,1.14-1.68-.47-7.64-2.45-7.88ZM129.42,432.83c-1.29-.84-10.87,1.75-11.75,3.15-.78,1.24.96,6.26,2.07,6.96,1.4.88,10.39-1.9,11.05-2.85.82-1.18-.82-6.9-1.37-7.26ZM109.8,437.75c-1.73.2-8.46,2.44-9.2,3.94-.55,1.13,1.04,6.34,2.06,6.97.77.47,10.64-2.29,11.06-2.86,1.14-1.55-.39-8.45-3.93-8.05ZM140.2,451.34c1.14.71,10.41-2.33,11.37-3.51s-.78-6.79-1.68-7.42c-1.32-.91-10.44,1.95-11.05,2.87-1.47,2.2.47,5.89,1.36,8.06ZM133.48,445.85c-1.5-.98-10.84,1.7-11.75,3.15-.72,1.16.53,5.71,1.6,6.6,1.73,1.44,10.77-1.4,11.54-2.5.64-.91-1-6.99-1.39-7.24ZM116.42,450.7c-1.04-.75-10.39,2.21-11.38,3.54-1.25,1.67.34,6.57,1.7,7.42,1.14.72,10.38-1.9,11.03-2.86.91-1.33-.64-7.59-1.34-8.1ZM502.06,471.78c-10.74-1.34-18.67,4.39-21.6,14.6-.43,1.5-.08,4.13-.49,4.8-.64,1.04-5.24.16-3.12,5.01,2.21-1.62,5.46-.86,4.81,1.96-.23,1-2.21.99-2.41,1.8-1.39,5.56,3.42,1.86,4.4,2.05,1.04.2,3.29,3.36,4.65,4.3,5.73,4,13.87,4.22,19.74.32.8-.53,4.58-4.01,4.58-4.34,0-.22-2.26-3.51-2.43-3.65-1.47-1.22-1.95,1.73-2.8,2.44-3.32,2.79-7.76,4.06-12.07,3.08-1.18-.27-6.88-3.46-5.01-4.72,1.71-1.15,12.13-3.57,12.57-4.06.25-.28-.65-3.94-.82-4.06-.8-.57-10.85,4.17-12.98,4.55-2.87.51-3.4-2.05-1.16-3.65,2.41-1.72,11.77-3.03,12.94-4.96.66-1.08,1.23-3.38-.83-3.28-4.24.21-9.09,3.92-13.11,4.81-1.3.29-1.23.11-1.15-1.15.26-4.2,4.79-9.7,8.92-10.62,4.72-1.05,7.7,1.71,7.38-5.22ZM267.79,609.24h148.04c.33-1.87-.11-1.3-1.04-1.82-4.19-2.32-15.74-4.06-18.03-7.98-1.65-2.83-1.52-11.38-2.45-15.44-3.29-14.35-18.82-42.5-30.11-52.05-23.22-19.64-63.4-16.25-87.4.48-17.76,12.38-16.84,24.76-13.65,44.45,1.74,10.73,6.86,21.68,4.64,32.37Z"/>
  <path d="M269.37,312.4c-.59-.55-7.46.97-5.04-4.7,2.25-5.28,28.97-24.37,35.17-14.46-.02,1.01-12.82,6.27-14.24,8.55-.66,1.06.82,8.48.24,11.59-1.64,8.71-11.42,11.84-15.45,2.81-.51-1.15-.53-3.66-.67-3.79Z"/>
  <path d="M215.06,313.29c-.41.49-.01,2.73-.5,3.97-4.49,11.38-15.75,4.37-15.94-6.17-.04-2,1.48-4.42.47-6.05-1.76-2.81-10.66-4.85-12.96-6.46-3.02-2.12,3.86-4.76,5.59-4.8,5.34-.11,22.13,9.23,25.51,13.41,4.67,5.77-1.21,4.96-2.17,6.1Z"/>
  <path d="M316.6,389.63c-7.56,9.07-21.55,15.61-33.35,13l33.35-13Z"/>
</svg>
